<svg xmlns="http://www.w3.org/2000/svg" xmlns:xlink="http://www.w3.org/1999/xlink" contentStyleType="text/css" data-diagram-type="DESCRIPTION" height="689.5833px" preserveAspectRatio="none" style="width:1112px;height:689px;" version="1.1" viewBox="0 0 1112 689" width="1112.5px" zoomAndPan="magnify"><title>UniSwap - System Architecture</title><defs/><g><g class="title" data-source-line="8"><rect fill="none" height="47.4528" rx="7.8125" ry="7.8125" style="stroke:#777777;stroke-width:1.0417;" width="357.1248" x="376.5136" y="20.8333"/><text fill="#2A9FD6" font-family="Inter" font-size="20.8333" font-weight="bold" lengthAdjust="spacing" textLength="334.2082" x="387.9719" y="52.4333">UniSwap - System Architecture</text></g><!--cluster FE--><g class="cluster" data-entity="FE" data-source-line="10" data-uid="ent0002" id="cluster_FE"><path d="M242.2994,85.9945 L301.2756,85.9945 A11.7188,11.7188 0 0 1 309.0881,93.807 L316.3798,117.3828 L742.2994,117.3828 A7.8125,7.8125 0 0 1 750.1119,125.1953 L750.1119,217.0049 A7.8125,7.8125 0 0 1 742.2994,224.8174 L242.2994,224.8174 A7.8125,7.8125 0 0 1 234.4869,217.0049 L234.4869,93.807 A7.8125,7.8125 0 0 1 242.2994,85.9945" fill="#1A1A2E" style="stroke:#2A9FD6;stroke-width:2.0833;"/><line style="stroke:#2A9FD6;stroke-width:2.0833;" x1="234.4869" x2="316.3798" y1="117.3828" y2="117.3828"/><text fill="#2A9FD6" font-family="Inter" font-size="12.5" font-weight="bold" lengthAdjust="spacing" textLength="57.9346" x="243.8619" y="105.3711">Frontend</text></g><!--cluster BE--><g class="cluster" data-entity="BE" data-source-line="16" data-uid="ent0006" id="cluster_BE"><path d="M249.591,301.9007 L304.2338,301.9007 A11.7188,11.7188 0 0 1 312.0463,309.7132 L319.3379,333.2891 L708.966,333.2891 A7.8125,7.8125 0 0 1 716.7785,341.1016 L716.7785,432.9007 A7.8125,7.8125 0 0 1 708.966,440.7132 L249.591,440.7132 A7.8125,7.8125 0 0 1 241.7785,432.9007 L241.7785,309.7132 A7.8125,7.8125 0 0 1 249.591,301.9007" fill="#0F3460" style="stroke:#2A9FD6;stroke-width:2.0833;"/><line style="stroke:#2A9FD6;stroke-width:2.0833;" x1="241.7785" x2="319.3379" y1="333.2891" y2="333.2891"/><text fill="#2A9FD6" font-family="Inter" font-size="12.5" font-weight="bold" lengthAdjust="spacing" textLength="53.6011" x="251.1535" y="321.2773">Backend</text></g><!--cluster EXT--><g class="cluster" data-entity="EXT" data-source-line="24" data-uid="ent0011" id="cluster_EXT"><path d="M54.5882,530.3176 C63.731,510.7903 77.9742,514.2286 89.7767,527.4607 C100.643,508.4309 112.7488,508.4834 124.1296,526.9899 C131.8069,507.8032 147.9969,510.0676 158.9379,523.5079 C169.4197,508.8245 183.8134,509.6365 193.4996,524.4404 C202.2061,502.2054 218.0229,503.2807 232.346,518.6363 C243.9511,502.9105 255.6782,506.1125 264.9505,521.1118 C274.4826,503.0754 286.1715,505.6933 297.5469,519.2074 C305.9116,499.9866 322.823,497.9055 334.2383,516.2258 C346.097,502.3544 358.9012,503.5952 367.4186,519.8998 C377.2413,500.5524 392.039,499.9 402.941,518.9 C416.8885,500.3897 430.3459,502.3493 440.9944,522.1747 C452.5375,507.2232 469.0506,506.55 476.9556,525.9799 C486.774,508.6456 499.9493,510.1476 510.4356,525.2915 C525.9145,510.6371 541.4851,510.5639 549.0702,533.4215 C552.9009,534.6721 552.6188,537.3255 550.3038,539.7701 C579.3359,545.994 584.2879,569.253 568.0737,591.1312 C587.169,618.8578 578.0575,646.0354 541.7785,648.2861 C542.0819,648.0423 542.2763,648.1026 542.4164,648.4595 C535.926,661.5197 522.4513,665.3449 512.9377,651.8106 C504.0676,669.9109 490.474,670.5906 477.2119,656.7182 C463.3353,675.8197 447.4282,674.4267 437.729,652.6804 C429.9753,669.0239 417.7566,670.5657 407.4026,655.1646 C395.8439,672.8877 381.2875,674.5159 370.5418,654.3733 C361.3138,669.3431 347.6292,671.6228 336.0495,657.126 C324.9593,673.0356 311.7162,677.2923 299.9739,657.7903 C288.7854,675.1127 273.2393,676.9107 263.0289,656.8243 C251.966,671.2612 235.596,674.3488 227.0674,654.1901 C218.3194,671.3918 204.5652,669.3785 194.111,656.0307 C182.8944,670.246 171.6102,669.6941 163.4718,652.9812 C153.185,672.3289 137.0296,670.4094 126.2357,653.5019 C117.6484,669.8825 103.9932,672.7038 93.2153,655.6664 C68.8177,676.3317 53.5678,672.1356 44.9035,640.9945 C46.3234,639.2657 47.463,639.2748 48.615,641.2621 C20.9761,626.6751 18.8743,610.8236 43.9236,591.2902 C16.6667,567.2464 17.1667,542.2671 52.1952,526.1299 C55.1111,526.2172 55.748,527.9012 54.5882,530.3176" fill="#533483" style="stroke:#2A9FD6;stroke-width:1.0417;"/><text fill="#ADAFAE" font-family="Inter" font-size="12.5" font-weight="bold" lengthAdjust="spacing" textLength="109.3811" x="242.2963" y="548.6315">External Services</text></g><!--cluster DEPLOY--><g class="cluster" data-entity="DEPLOY" data-source-line="30" data-uid="ent0015" id="cluster_DEPLOY"><path d="M800.9417,105.735 C806.676,96.1956 814.5605,96.5611 820.5061,105.5114 C825.7036,95.2212 835.934,97.0385 841.2858,105.339 C847.4,95.0562 853.871,95.5476 861.168,104.0897 C865.4323,94.813 874.2133,95.357 879.433,103.0621 C885.7043,94.4554 891.4856,91.8909 898.766,102.0209 C904.657,91.0393 912.9104,90.3511 919.382,101.4796 C926.502,92.3988 933.038,91.2975 939.5945,102.0538 C944.6638,91.2187 950.9935,92.338 958.2695,99.8018 C964.9242,90.9721 974.5939,88.3135 980.6316,100.4595 C988.003,92.5856 995.3117,94.9211 999.6584,103.8786 C1004.1578,92.8658 1013.0177,92.9169 1019.8849,101.4253 C1025.7168,94.4522 1034.1157,95.0699 1037.9499,103.7333 C1044.0624,90.9581 1052.7806,92.803 1060.3898,102.2198 C1070.7862,93.3167 1081.6128,95.4153 1084.4869,109.9528 C1086.3398,108.6545 1087.1843,109.4904 1087.7578,111.2995 C1097.6406,117.1234 1100.587,127.9657 1088.7709,134.7278 C1100.1449,141.804 1098.8533,151.8026 1088.4324,158.5693 C1098.9312,165.5561 1098.2666,174.5725 1086.7921,179.8668 C1098.4007,191.7962 1092.3176,205.2912 1077.1952,208.1507 C1078.1606,207.9519 1078.5189,208.3977 1078.3712,209.3192 C1073.6477,219.2281 1065.2687,218.9606 1059.563,210.3148 C1055.4565,220.1067 1047.9958,222.6855 1040.6564,213.5429 C1035.2574,221.8815 1027.7791,223.6156 1021.1274,214.9845 C1014.5076,222.8051 1006.9228,223.7613 1001.4017,213.768 C995.7625,224.2331 988.7529,227.9059 979.7081,217.269 C973.29,227.6538 964.2499,226.5157 958.3129,216.758 C953.6604,224.8066 946.3515,224.4801 941.9728,216.4792 C934.5008,227.8348 926.3269,225.0901 920.0569,215.2372 C914.6281,227.4336 906.4637,228.1878 898.8831,217.2026 C890.9246,224.5621 885.1245,223.1893 881.2248,213.0959 C874.4859,224.0021 866.504,222.2901 859.6235,213.2492 C853.0383,222.2687 847.295,220.5576 841.0485,212.8725 C835.6388,221.3538 827.0212,221.6431 821.3909,213.1277 C804.9151,225.2493 796.4896,217.1335 791.7785,200.859 C793.0508,200.7255 793.6702,201.6595 793.2886,202.8076 C782.822,196.7535 779.6686,185.9808 791.8579,178.5884 C782.5947,172.4209 781.6357,163.6403 791.9516,157.56 C779.4715,149.2086 782.5012,140.0999 793.2831,133.0102 C778.9136,121.6403 781.3786,107.9174 799.0702,102.6611 C800.955,102.9762 801.611,103.8648 800.9417,105.735" fill="#0F3460" style="stroke:#2A9FD6;stroke-width:1.0417;"/><text fill="#ADAFAE" font-family="Inter" font-size="12.5" font-weight="bold" lengthAdjust="spacing" textLength="77.5757" x="899.3449" y="125.1628">Deployment</text></g><!--entity webapp--><g class="entity" data-entity="webapp" data-source-line="11" data-uid="ent0003" id="entity_webapp"><rect fill="#16213E" height="60.6934" rx="7.8125" ry="7.8125" style="stroke:#55B2DE;stroke-width:1.0417;" width="113.324" x="279.9035" y="139.1195"/><text fill="#2A9FD6" font-family="Inter" font-size="12.5" lengthAdjust="spacing" textLength="82.074" x="295.5285" y="166.8294">React/Next.js</text><text fill="#2A9FD6" font-family="Inter" font-size="12.5" lengthAdjust="spacing" textLength="53.8391" x="295.5285" y="181.5511">Web App</text></g><!--entity ui--><g class="entity" data-entity="ui" data-source-line="12" data-uid="ent0004" id="entity_ui"><rect fill="#16213E" height="60.6934" rx="7.8125" ry="7.8125" style="stroke:#55B2DE;stroke-width:1.0417;" width="115.4297" x="429.8931" y="139.1195"/><text fill="#2A9FD6" font-family="Inter" font-size="12.5" lengthAdjust="spacing" textLength="84.1797" x="445.5181" y="166.8294">Responsive UI</text><text fill="#2A9FD6" font-family="Inter" font-size="12.5" lengthAdjust="spacing" textLength="74.2126" x="445.5181" y="181.5511">Mobile-First</text></g><!--entity state--><g class="entity" data-entity="state" data-source-line="13" data-uid="ent0005" id="entity_state"><rect fill="#16213E" height="45.9717" rx="7.8125" ry="7.8125" style="stroke:#55B2DE;stroke-width:1.0417;" width="143.3105" x="581.5806" y="146.484"/><text fill="#2A9FD6" font-family="Inter" font-size="12.5" lengthAdjust="spacing" textLength="112.0605" x="597.2056" y="174.194">State Management</text></g><!--entity api--><g class="entity" data-entity="api" data-source-line="17" data-uid="ent0007" id="entity_api"><rect fill="#1A1A2E" height="60.6934" rx="7.8125" ry="7.8125" style="stroke:#55B2DE;stroke-width:1.0417;" width="92.511" x="287.1848" y="355.0257"/><text fill="#2A9FD6" font-family="Inter" font-size="12.5" lengthAdjust="spacing" textLength="61.261" x="302.8098" y="382.7357">Express.js</text><text fill="#2A9FD6" font-family="Inter" font-size="12.5" lengthAdjust="spacing" textLength="52.4048" x="302.8098" y="397.4574">REST API</text></g><!--entity auth--><g class="entity" data-entity="auth" data-source-line="18" data-uid="ent0008" id="entity_auth"><rect fill="#1A1A2E" height="60.6934" rx="7.8125" ry="7.8125" style="stroke:#55B2DE;stroke-width:1.0417;" width="120.105" x="416.1015" y="355.0257"/><text fill="#2A9FD6" font-family="Inter" font-size="12.5" lengthAdjust="spacing" textLength="88.855" x="431.7265" y="382.7357">Authentication</text><text fill="#2A9FD6" font-family="Inter" font-size="12.5" lengthAdjust="spacing" textLength="80.9021" x="431.7265" y="397.4574">JWT/Sessions</text></g><!--entity services--><g class="entity" data-entity="services" data-source-line="19" data-uid="ent0009" id="entity_services"><rect fill="#1A1A2E" height="60.6934" rx="7.8125" ry="7.8125" style="stroke:#55B2DE;stroke-width:1.0417;" width="119.7571" x="572.5285" y="355.0257"/><text fill="#2A9FD6" font-family="Inter" font-size="12.5" lengthAdjust="spacing" textLength="88.5071" x="588.1535" y="382.7357">Business Logic</text><text fill="#2A9FD6" font-family="Inter" font-size="12.5" lengthAdjust="spacing" textLength="48.6328" x="588.1535" y="397.4574">Services</text></g><!--entity openlib--><g class="entity" data-entity="openlib" data-source-line="25" data-uid="ent0012" id="entity_openlib"><rect fill="#1A1A2E" height="60.6934" rx="7.8125" ry="7.8125" style="stroke:#55B2DE;stroke-width:1.0417;" width="132.4036" x="81.8306" y="570.9215"/><text fill="#2A9FD6" font-family="Inter" font-size="12.5" lengthAdjust="spacing" textLength="101.1536" x="97.4556" y="598.6315">Open Library API</text><text fill="#2A9FD6" font-family="Inter" font-size="12.5" lengthAdjust="spacing" textLength="97.5952" x="97.4556" y="613.3532">(Book Metadata)</text></g><!--entity cloudinary--><g class="entity" data-entity="cloudinary" data-source-line="26" data-uid="ent0013" id="entity_cloudinary"><rect fill="#1A1A2E" height="60.6934" rx="7.8125" ry="7.8125" style="stroke:#55B2DE;stroke-width:1.0417;" width="126.1292" x="250.591" y="570.9215"/><text fill="#2A9FD6" font-family="Inter" font-size="12.5" lengthAdjust="spacing" textLength="65.4846" x="266.216" y="598.6315">Cloudinary</text><text fill="#2A9FD6" font-family="Inter" font-size="12.5" lengthAdjust="spacing" textLength="94.8792" x="266.216" y="613.3532">(Image Storage)</text></g><!--entity maps--><g class="entity" data-entity="maps" data-source-line="27" data-uid="ent0014" id="entity_maps"><rect fill="#1A1A2E" height="60.6934" rx="7.8125" ry="7.8125" style="stroke:#55B2DE;stroke-width:1.0417;" width="119.519" x="413.2681" y="570.9215"/><text fill="#2A9FD6" font-family="Inter" font-size="12.5" lengthAdjust="spacing" textLength="54.9988" x="428.8931" y="598.6315">Maps API</text><text fill="#2A9FD6" font-family="Inter" font-size="12.5" lengthAdjust="spacing" textLength="88.269" x="428.8931" y="613.3532">(Pickup Zones)</text></g><!--entity frontend_host--><g class="entity" data-entity="frontend_host" data-source-line="31" data-uid="ent0016" id="entity_frontend_host"><rect fill="#1A1A2E" height="60.6934" rx="7.8125" ry="7.8125" style="stroke:#55B2DE;stroke-width:1.0417;" width="114.2639" x="800.2681" y="139.1195"/><text fill="#2A9FD6" font-family="Inter" font-size="12.5" lengthAdjust="spacing" textLength="83.0139" x="815.8931" y="166.8294">Netlify/Vercel</text><text fill="#2A9FD6" font-family="Inter" font-size="12.5" lengthAdjust="spacing" textLength="62.6465" x="815.8931" y="181.5511">(Frontend)</text></g><!--entity backend_host--><g class="entity" data-entity="backend_host" data-source-line="32" data-uid="ent0017" id="entity_backend_host"><rect fill="#1A1A2E" height="60.6934" rx="7.8125" ry="7.8125" style="stroke:#55B2DE;stroke-width:1.0417;" width="125.4761" x="950.914" y="139.1195"/><text fill="#2A9FD6" font-family="Inter" font-size="12.5" lengthAdjust="spacing" textLength="94.2261" x="966.539" y="166.8294">Render/Railway</text><text fill="#2A9FD6" font-family="Inter" font-size="12.5" lengthAdjust="spacing" textLength="58.5205" x="966.539" y="181.5511">(Backend)</text></g><!--entity db--><g class="entity" data-entity="db" data-source-line="22" data-uid="ent0010" id="entity_db"><path d="M582.466,584.0153 C582.466,573.5986 632.3989,573.5986 632.3989,573.5986 C632.3989,573.5986 682.3318,573.5986 682.3318,584.0153 L682.3318,618.5286 C682.3318,628.9453 632.3989,628.9453 632.3989,628.9453 C632.3989,628.9453 582.466,628.9453 582.466,618.5286 L582.466,584.0153" fill="#E94560" style="stroke:#55B2DE;stroke-width:1.0417;"/><path d="M582.466,584.0153 C582.466,594.432 632.3989,594.432 632.3989,594.432 C632.3989,594.432 682.3318,594.432 682.3318,584.0153" fill="none" style="stroke:#55B2DE;stroke-width:1.0417;"/><text fill="#2A9FD6" font-family="Inter" font-size="12.5" lengthAdjust="spacing" textLength="68.6157" x="598.091" y="615.8919">PostgreSQL</text></g><!--link webapp to api--><g class="link" data-entity-1="webapp" data-entity-2="api" data-source-line="35" data-uid="lnk18" id="link_webapp_api"><path d="M336.1327,200.2445 C335.539,240.9736 334.5674,307.4743 333.9737,348.2555" fill="none" id="webapp-to-api" style="stroke:#2A9FD6;stroke-width:3.125;"/><polygon fill="#2A9FD6" points="333.8827,354.5049,338.1854,345.1915,333.9585,349.2971,329.853,345.0702,333.8827,354.5049" style="stroke:#2A9FD6;stroke-width:3.125;"/><text fill="#FFFFFF" font-family="Inter" font-size="12.5" lengthAdjust="spacing" textLength="38.6353" x="341.6327" y="268.1523">HTTPS</text></g><!--link api to db--><g class="link" data-entity-1="api" data-entity-2="db" data-source-line="36" data-uid="lnk19" id="link_api_db"><path d="M353.0494,416.0674 C364.4035,430.8486 380.0181,447.609 398.0285,457.3799 C418.2265,468.3486 427.0181,459.2445 449.0702,465.7132 C478.1223,474.2445 482.7785,483.4528 511.5702,492.7965 C527.8098,498.0674 534.4765,492.2861 549.0702,501.1299 C578.289,518.8486 598.8113,545.2019 613.405,567.9623" fill="none" id="api-to-db" style="stroke:#2A9FD6;stroke-width:3.125;"/><polygon fill="#2A9FD6" points="616.7785,573.2236,615.2258,563.0826,613.9673,568.8392,608.2107,567.5806,616.7785,573.2236" style="stroke:#2A9FD6;stroke-width:3.125;"/><text fill="#FFFFFF" font-family="Inter" font-size="12.5" lengthAdjust="spacing" textLength="23.1079" x="517.8202" y="484.0482">SQL</text></g><!--link api to openlib--><g class="link" data-entity-1="api" data-entity-2="openlib" data-source-line="37" data-uid="lnk20" id="link_api_openlib"><path d="M317.5077,416.2028 C308.8827,430.1403 297.1848,446.0986 283.4452,457.3799 C276.3931,463.1715 272.091,460.3799 264.6952,465.7132 C224.3306,494.8278 192.1791,535.4083 171.2104,565.3145" fill="none" id="api-to-openlib" style="stroke:#2A9FD6;stroke-width:3.125;"/><polygon fill="#2A9FD6" points="167.6223,570.432,176.416,565.1479,170.6124,566.1674,169.5928,560.3638,167.6223,570.432" style="stroke:#2A9FD6;stroke-width:3.125;"/><text fill="#FFFFFF" font-family="Inter" font-size="12.5" lengthAdjust="spacing" textLength="29.3152" x="270.9452" y="484.0482">REST</text></g><!--link api to cloudinary--><g class="link" data-entity-1="api" data-entity-2="cloudinary" data-source-line="38" data-uid="lnk21" id="link_api_cloudinary"><path d="M325.8827,415.9528 C322.4348,430.7861 318.7056,449.0882 316.7785,465.7132 C312.6327,501.5674 312.2538,536.8911 312.6809,564.2244" fill="none" id="api-to-cloudinary" style="stroke:#2A9FD6;stroke-width:3.125;"/><polygon fill="#2A9FD6" points="312.7785,570.4736,316.7982,561.0347,312.6972,565.2659,308.4659,561.1649,312.7785,570.4736" style="stroke:#2A9FD6;stroke-width:3.125;"/><text fill="#FFFFFF" font-family="Inter" font-size="12.5" lengthAdjust="spacing" textLength="29.3152" x="323.0285" y="484.0482">REST</text></g><!--link api to maps--><g class="link" data-entity-1="api" data-entity-2="maps" data-source-line="39" data-uid="lnk22" id="link_api_maps"><path d="M352.8515,416.1403 C379.4452,456.8799 423.518,524.3965 450.143,565.1777" fill="none" id="api-to-maps" style="stroke:#2A9FD6;stroke-width:3.125;"/><polygon fill="#2A9FD6" points="453.5598,570.4111,451.9236,560.2832,450.7125,566.05,444.9457,564.8389,453.5598,570.4111" style="stroke:#2A9FD6;stroke-width:3.125;"/><text fill="#FFFFFF" font-family="Inter" font-size="12.5" lengthAdjust="spacing" textLength="29.3152" x="405.2994" y="484.0482">REST</text></g><!--link auth to db--><g class="link" data-entity-1="auth" data-entity-2="db" data-source-line="40" data-uid="lnk23" id="link_auth_db"><path d="M509.3827,415.9111 C524.3827,430.1299 541.7369,447.9424 555.3202,465.7132 C581.789,500.3695 602.8592,539.4248 616.7863,567.5498" fill="none" id="auth-to-db" style="stroke:#2A9FD6;stroke-width:3.125;"/><polygon fill="#2A9FD6" points="619.5598,573.1507,619.1335,562.9003,617.2485,568.4833,611.6656,566.5983,619.5598,573.1507" style="stroke:#2A9FD6;stroke-width:3.125;"/></g><!--link services to db--><g class="link" data-entity-1="services" data-entity-2="db" data-source-line="41" data-uid="lnk24" id="link_services_db"><path d="M632.4035,416.1403 C632.4035,457.7965 632.4035,526.6715 632.4035,566.8695" fill="none" id="services-to-db" style="stroke:#2A9FD6;stroke-width:3.125;"/><polygon fill="#2A9FD6" points="632.4035,573.1195,636.5702,563.7445,632.4035,567.9111,628.2369,563.7445,632.4035,573.1195" style="stroke:#2A9FD6;stroke-width:3.125;"/></g><!--link FE to BE--><!--link BE to EXT--><!--SRC=[TLFRSjem47ttLsoJb_Q14aAIQVFG6KXWIWS8nRJfXKvdBI-WOaiQIGwXdVvxrnSy91I_M7ivktjMHo_yYb82iOsqNJPqvXEfA71hgGnQJ252iLvQdQduHYVQWhUe78T8-Rsic1QO9RwlbHyZbnieJ_R_yL3-9cYTxmMBwa9RHHPQbti1eLEZ5NSA_JOXi2GygcL2GU2bPySd9SCD6cX0k7MUKkXOiPAUqpBBIOP7noN1ITzoNrBn2Q23VWzEMzZ2Su8_0V1NTu6JAQ7mpJ4z-jU_t5pTKmGTOmhOXY8qXg5Nvwqs7G8T7vryuA46SpNIaKoeqPVM-GAToMF8qACd6A7YILFs5EckSEuGV_UeTFcmOz9b9cUBziNLsI6JtgEnv5n1OzeBPz2P30eG6hdZ_npJoLWBoak1NcerLn_kPysGYx3XIYmd70DtCyV2SGw6UYd5N8La7wIW4kWgemOpfHWzHkYOqqGxlxGKVXmMoN44f_JsulBgB0X4ehCuPyDoKfZ0awgzBpCulMotBzwq3nTmPqZ1K4OMxJOdFrSlkrglOKGUyzQlYXAQin8P7IDraxUNYaimV93cDn1wRVbVmaKTFrPXXCPLxITIh3C3tpZYIdYQ1_TMKh6z9PFeRIs6szvaUFVr-5MFYT_iOjlyJ5PGmersSY-RB2hhvuhNV6pCAIUGRKvH9XlCoLOwAqj4fV6q0izRlOb6urqXgsjuFvjDmY0_vpw-o6lWMwqTksrVGox9shstnMUHOa4xNow-icnGwwco0txKZUyh6SUaViHwezZTxGNTGozh9lW7]--></g></svg>