<svg xmlns="http://www.w3.org/2000/svg" xmlns:xlink="http://www.w3.org/1999/xlink" contentStyleType="text/css" data-diagram-type="ACTIVITY" height="1563.5417px" preserveAspectRatio="none" style="width:1673px;height:1563px;" version="1.1" viewBox="0 0 1673 1563" width="1673.9583px" zoomAndPan="magnify"><title>UniSwap - User Journey Flow</title><defs><linearGradient id="goxi65om6ffqi0" x1="50%" x2="50%" y1="0%" y2="100%"><stop offset="0%" stop-color="#444444"/><stop offset="100%" stop-color="#555555"/></linearGradient></defs><g><g class="title" data-source-line="9"><rect fill="none" height="47.4528" rx="4.1667" ry="4.1667" style="stroke:#777777;stroke-width:1.0417;" width="337.441" x="666.9503" y="20.8333"/><text fill="#2A9FD6" font-family="Inter" font-size="20.8333" font-weight="bold" lengthAdjust="spacing" textLength="314.5243" x="678.4086" y="52.4333">UniSwap - User Journey Flow</text></g><rect fill="url(#goxi65om6ffqi0)" height="25.1383" style="stroke:url(#goxi65om6ffqi0);stroke-width:1.0417;" width="1640.0916" x="15.625" y="80.7861"/><rect fill="#1A1A2E" height="1470.5404" style="stroke:#1A1A2E;stroke-width:1.0417;" width="181.3314" x="15.625" y="80.7861"/><ellipse cx="107.3324" cy="121.5495" fill="#9933CC" rx="10.4167" ry="10.4167" style="stroke:#55B2DE;stroke-width:1.0417;"/><rect fill="#16213E" height="37.6383" rx="4.1667" ry="4.1667" style="stroke:#E94560;stroke-width:1.0417;" width="104.484" x="55.0903" y="152.7995"/><text fill="#2A9FD6" font-family="Inter" font-size="12.5" lengthAdjust="spacing" textLength="81.5674" x="66.5487" y="176.3428">Visit UniSwap</text><rect fill="#16213E" height="52.36" rx="4.1667" ry="4.1667" style="stroke:#E94560;stroke-width:1.0417;" width="119.2179" x="47.7234" y="211.2712"/><text fill="#2A9FD6" font-family="Inter" font-size="12.5" lengthAdjust="spacing" textLength="79.0344" x="59.1817" y="234.8145">Register with</text><text fill="#2A9FD6" font-family="Inter" font-size="12.5" lengthAdjust="spacing" textLength="96.3013" x="59.1817" y="249.5361">University Email</text><rect fill="#16213E" height="52.36" rx="4.1667" ry="4.1667" style="stroke:#E94560;stroke-width:1.0417;" width="170.9147" x="21.875" y="284.4645"/><text fill="#2A9FD6" font-family="Inter" font-size="12.5" lengthAdjust="spacing" textLength="81.7139" x="33.3333" y="308.0078">Create Profile</text><text fill="#2A9FD6" font-family="Inter" font-size="12.5" lengthAdjust="spacing" textLength="147.998" x="33.3333" y="322.7295">(Name, Course, Contact)</text><line style="stroke:#9933CC;stroke-width:2.0833;" x1="15.625" x2="15.625" y1="80.7861" y2="1551.3265"/><rect fill="#0F3460" height="1470.5404" style="stroke:#0F3460;stroke-width:1.0417;" width="414.5529" x="196.9564" y="80.7861"/><rect fill="#16213E" height="37.6383" rx="4.1667" ry="4.1667" style="stroke:#E94560;stroke-width:1.0417;" width="163.1144" x="444.2282" y="357.6579"/><text fill="#2A9FD6" font-family="Inter" font-size="12.5" lengthAdjust="spacing" textLength="140.1978" x="455.6866" y="381.2012">Search/Browse Listings</text><polygon fill="#533483" points="483.6264,416.1296,567.9445,416.1296,580.4445,428.6987,567.9445,441.2679,483.6264,441.2679,471.1264,428.6987,483.6264,416.1296" style="stroke:#E94560;stroke-width:1.0417;"/><text fill="#777777" font-family="Inter" font-size="12.5" lengthAdjust="spacing" textLength="73.9014" x="488.8348" y="433.4229">Found Item?</text><text fill="#FFFFFF" font-family="Inter" font-size="12.5" lengthAdjust="spacing" textLength="19.8669" x="446.0512" y="420.8537">yes</text><text fill="#FFFFFF" font-family="Inter" font-size="12.5" lengthAdjust="spacing" textLength="15.4358" x="585.6528" y="420.8537">no</text><rect fill="#16213E" height="37.6383" rx="4.1667" ry="4.1667" style="stroke:#E94560;stroke-width:1.0417;" width="127.6225" x="309.6881" y="462.1012"/><text fill="#2A9FD6" font-family="Inter" font-size="12.5" lengthAdjust="spacing" textLength="104.7058" x="321.1464" y="485.6445">View Item Details</text><polygon fill="#533483" points="335.2069,520.5729,411.7917,520.5729,424.2917,533.1421,411.7917,545.7113,335.2069,545.7113,322.7069,533.1421,335.2069,520.5729" style="stroke:#E94560;stroke-width:1.0417;"/><text fill="#777777" font-family="Inter" font-size="12.5" lengthAdjust="spacing" textLength="66.1682" x="340.4152" y="537.8662">Want Item?</text><text fill="#FFFFFF" font-family="Inter" font-size="12.5" lengthAdjust="spacing" textLength="19.8669" x="297.6316" y="525.297">yes</text><text fill="#FFFFFF" font-family="Inter" font-size="12.5" lengthAdjust="spacing" textLength="15.4358" x="429.5001" y="525.297">no</text><rect fill="#16213E" height="37.6383" rx="4.1667" ry="4.1667" style="stroke:#E94560;stroke-width:1.0417;" width="104.6977" x="203.2064" y="566.5446"/><text fill="#2A9FD6" font-family="Inter" font-size="12.5" lengthAdjust="spacing" textLength="81.781" x="214.6647" y="590.0879">Send Request</text><polygon fill="#533483" points="373.4993,1169.1081,385.9993,1181.6081,373.4993,1194.1081,360.9993,1181.6081,373.4993,1169.1081" style="stroke:#E94560;stroke-width:1.0417;"/><polygon fill="#533483" points="525.7854,1204.5247,538.2854,1217.0247,525.7854,1229.5247,513.2854,1217.0247,525.7854,1204.5247" style="stroke:#E94560;stroke-width:1.0417;"/><line style="stroke:#9933CC;stroke-width:2.0833;" x1="196.9564" x2="196.9564" y1="80.7861" y2="1551.3265"/><rect fill="#533483" height="1470.5404" style="stroke:#533483;stroke-width:1.0417;" width="216.0741" x="611.5093" y="80.7861"/><rect fill="#16213E" height="37.6383" rx="4.1667" ry="4.1667" style="stroke:#E94560;stroke-width:1.0417;" width="116.923" x="702.4563" y="640.6413"/><text fill="#2A9FD6" font-family="Inter" font-size="12.5" lengthAdjust="spacing" textLength="94.0063" x="713.9146" y="664.1846">Review Request</text><polygon fill="#533483" points="732.6046,714.738,789.231,714.738,801.731,727.3071,789.231,739.8763,732.6046,739.8763,720.1046,727.3071,732.6046,714.738" style="stroke:#E94560;stroke-width:1.0417;"/><text fill="#777777" font-family="Inter" font-size="12.5" lengthAdjust="spacing" textLength="46.2097" x="737.8129" y="732.0313">Accept?</text><text fill="#FFFFFF" font-family="Inter" font-size="12.5" lengthAdjust="spacing" textLength="19.8669" x="695.0293" y="719.4621">yes</text><text fill="#FFFFFF" font-family="Inter" font-size="12.5" lengthAdjust="spacing" textLength="15.4358" x="806.9393" y="719.4621">no</text><rect fill="#16213E" height="37.6383" rx="4.1667" ry="4.1667" style="stroke:#E94560;stroke-width:1.0417;" width="133.9701" x="617.7593" y="760.7096"/><text fill="#2A9FD6" font-family="Inter" font-size="12.5" lengthAdjust="spacing" textLength="111.0535" x="629.2177" y="784.2529">Confirm Exchange</text><polygon fill="#533483" points="760.9178,1133.6914,773.4178,1146.1914,760.9178,1158.6914,748.4178,1146.1914,760.9178,1133.6914" style="stroke:#E94560;stroke-width:1.0417;"/><line style="stroke:#9933CC;stroke-width:2.0833;" x1="611.5093" x2="611.5093" y1="80.7861" y2="1551.3265"/><rect fill="#16213E" height="1470.5404" style="stroke:#16213E;stroke-width:1.0417;" width="431.1523" x="827.5834" y="80.7861"/><rect fill="#16213E" height="52.36" rx="4.1667" ry="4.1667" style="stroke:#E94560;stroke-width:1.0417;" width="96.6838" x="856.978" y="834.8063"/><text fill="#2A9FD6" font-family="Inter" font-size="12.5" lengthAdjust="spacing" textLength="44.9036" x="868.4363" y="858.3496">Meet at</text><text fill="#2A9FD6" font-family="Inter" font-size="12.5" lengthAdjust="spacing" textLength="73.7671" x="868.4363" y="873.0713">Pickup Zone</text><rect fill="#16213E" height="37.6383" rx="4.1667" ry="4.1667" style="stroke:#E94560;stroke-width:1.0417;" width="142.9728" x="833.8334" y="923.6247"/><text fill="#2A9FD6" font-family="Inter" font-size="12.5" lengthAdjust="spacing" textLength="120.0562" x="845.2918" y="947.168">Complete Exchange</text><rect fill="#16213E" height="52.36" rx="4.1667" ry="4.1667" style="stroke:#E94560;stroke-width:1.0417;" width="119.4071" x="845.6163" y="997.7214"/><text fill="#2A9FD6" font-family="Inter" font-size="12.5" lengthAdjust="spacing" textLength="96.4905" x="857.0746" y="1021.2646">Rate Experience</text><text fill="#2A9FD6" font-family="Inter" font-size="12.5" lengthAdjust="spacing" textLength="83.3333" x="857.0746" y="1035.9863">&#11088;&#11088;&#11088;&#11088;&#11088;</text><rect fill="#16213E" height="52.36" rx="4.1667" ry="4.1667" style="stroke:#E94560;stroke-width:1.0417;" width="90.4277" x="860.106" y="1070.9147"/><text fill="#2A9FD6" font-family="Inter" font-size="12.5" lengthAdjust="spacing" textLength="67.511" x="871.5644" y="1094.458">Earn Points</text><text fill="#2A9FD6" font-family="Inter" font-size="12.5" lengthAdjust="spacing" textLength="46.3664" x="871.5644" y="1109.1797">+10 &#127918;</text><rect fill="#16213E" height="37.6383" rx="4.1667" ry="4.1667" style="stroke:#E94560;stroke-width:1.0417;" width="120.0541" x="987.2229" y="760.7096"/><text fill="#2A9FD6" font-family="Inter" font-size="12.5" lengthAdjust="spacing" textLength="97.1375" x="998.6813" y="784.2529">Decline Request</text><rect fill="#16213E" height="37.6383" rx="4.1667" ry="4.1667" style="stroke:#E94560;stroke-width:1.0417;" width="136.8754" x="1117.6937" y="566.5446"/><text fill="#2A9FD6" font-family="Inter" font-size="12.5" lengthAdjust="spacing" textLength="113.9587" x="1129.152" y="590.0879">Continue Browsing</text><line style="stroke:#9933CC;stroke-width:2.0833;" x1="827.5834" x2="827.5834" y1="80.7861" y2="1551.3265"/><rect fill="#0F3460" height="1470.5404" style="stroke:#0F3460;stroke-width:1.0417;" width="184.2977" x="1258.7358" y="80.7861"/><rect fill="#16213E" height="37.6383" rx="4.1667" ry="4.1667" style="stroke:#E94560;stroke-width:1.0417;" width="136.4176" x="1283.7175" y="462.1012"/><text fill="#2A9FD6" font-family="Inter" font-size="12.5" lengthAdjust="spacing" textLength="113.501" x="1295.1758" y="485.6445">Create New Listing</text><rect fill="#16213E" height="37.6383" rx="4.1667" ry="4.1667" style="stroke:#E94560;stroke-width:1.0417;" width="85.9294" x="1308.9616" y="520.5729"/><text fill="#2A9FD6" font-family="Inter" font-size="12.5" lengthAdjust="spacing" textLength="63.0127" x="1320.4199" y="544.1162">Add Photo</text><rect fill="#16213E" height="52.36" rx="4.1667" ry="4.1667" style="stroke:#E94560;stroke-width:1.0417;" width="135.1481" x="1284.3522" y="594.6696"/><text fill="#2A9FD6" font-family="Inter" font-size="12.5" lengthAdjust="spacing" textLength="76.7456" x="1295.8106" y="618.2129">Enter Details</text><text fill="#2A9FD6" font-family="Inter" font-size="12.5" lengthAdjust="spacing" textLength="112.2314" x="1295.8106" y="632.9346">(Title, Description)</text><rect fill="#16213E" height="52.36" rx="4.1667" ry="4.1667" style="stroke:#E94560;stroke-width:1.0417;" width="173.881" x="1264.9858" y="683.488"/><text fill="#2A9FD6" font-family="Inter" font-size="12.5" lengthAdjust="spacing" textLength="76.6357" x="1276.4441" y="707.0313">Set Category</text><text fill="#2A9FD6" font-family="Inter" font-size="12.5" lengthAdjust="spacing" textLength="150.9644" x="1276.4441" y="721.7529">(Book/Notes/Equipment)</text><rect fill="#16213E" height="67.0817" rx="4.1667" ry="4.1667" style="stroke:#E94560;stroke-width:1.0417;" width="126.359" x="1288.7468" y="772.3063"/><text fill="#2A9FD6" font-family="Inter" font-size="12.5" lengthAdjust="spacing" textLength="61.9995" x="1300.2051" y="795.8496">Enter ISBN</text><text fill="#2A9FD6" font-family="Inter" font-size="12.5" lengthAdjust="spacing" textLength="103.4424" x="1300.2051" y="810.5713">(Auto-fetch from</text><text fill="#2A9FD6" font-family="Inter" font-size="12.5" lengthAdjust="spacing" textLength="82.1289" x="1300.2051" y="825.293">Open Library)</text><rect fill="#16213E" height="37.6383" rx="4.1667" ry="4.1667" style="stroke:#E94560;stroke-width:1.0417;" width="111.2528" x="1296.2999" y="875.8464"/><text fill="#2A9FD6" font-family="Inter" font-size="12.5" lengthAdjust="spacing" textLength="88.3362" x="1307.7582" y="899.3896">Publish Listing</text><rect fill="#16213E" height="52.36" rx="4.1667" ry="4.1667" style="stroke:#E94560;stroke-width:1.0417;" width="90.4277" x="1306.7125" y="949.943"/><text fill="#2A9FD6" font-family="Inter" font-size="12.5" lengthAdjust="spacing" textLength="67.511" x="1318.1708" y="973.4863">Earn Points</text><text fill="#2A9FD6" font-family="Inter" font-size="12.5" lengthAdjust="spacing" textLength="46.3664" x="1318.1708" y="988.208">+10 &#127918;</text><line style="stroke:#9933CC;stroke-width:2.0833;" x1="1258.7358" x2="1258.7358" y1="80.7861" y2="1551.3265"/><rect fill="#E94560" height="1470.5404" style="stroke:#E94560;stroke-width:1.0417;" width="206.5389" x="1443.0335" y="80.7861"/><rect fill="#16213E" height="37.6383" rx="4.1667" ry="4.1667" style="stroke:#E94560;stroke-width:1.0417;" width="121.0795" x="1486.8048" y="1250.3581"/><text fill="#2A9FD6" font-family="Inter" font-size="12.5" lengthAdjust="spacing" textLength="98.1628" x="1498.2632" y="1273.9014">View Dashboard</text><rect fill="#16213E" height="52.36" rx="4.1667" ry="4.1667" style="stroke:#E94560;stroke-width:1.0417;" width="196.1222" x="1449.2835" y="1308.8298"/><text fill="#2A9FD6" font-family="Inter" font-size="12.5" lengthAdjust="spacing" textLength="109.2407" x="1460.7418" y="1332.373">See Personal Stats</text><text fill="#2A9FD6" font-family="Inter" font-size="12.5" lengthAdjust="spacing" textLength="173.2056" x="1460.7418" y="1347.0947">(Items Shared, Money Saved)</text><rect fill="#16213E" height="52.36" rx="4.1667" ry="4.1667" style="stroke:#E94560;stroke-width:1.0417;" width="162.6078" x="1466.0407" y="1382.0231"/><text fill="#2A9FD6" font-family="Inter" font-size="12.5" lengthAdjust="spacing" textLength="139.6912" x="1477.499" y="1405.5664">See Community Impact</text><text fill="#2A9FD6" font-family="Inter" font-size="12.5" lengthAdjust="spacing" textLength="96.3379" x="1477.499" y="1420.2881">(CO&#8322; Reduction)</text><rect fill="#16213E" height="52.36" rx="4.1667" ry="4.1667" style="stroke:#E94560;stroke-width:1.0417;" width="111.381" x="1491.6541" y="1455.2165"/><text fill="#2A9FD6" font-family="Inter" font-size="12.5" lengthAdjust="spacing" textLength="88.4644" x="1503.1124" y="1478.7598">Unlock Badges</text><text fill="#2A9FD6" font-family="Inter" font-size="12.5" lengthAdjust="spacing" textLength="33.3333" x="1503.1124" y="1493.4814">&#129351;&#127793;</text><ellipse cx="1547.3446" cy="1539.8682" fill="none" rx="11.4583" ry="11.4583" style="stroke:#55B2DE;stroke-width:1.0417;"/><ellipse cx="1547.3446" cy="1539.8682" fill="none" rx="6.25" ry="6.25" style="stroke:#55B2DE;stroke-width:1.0417;"/><line style="stroke:#9933CC;stroke-width:2.0833;" x1="1443.0335" x2="1443.0335" y1="80.7861" y2="1551.3265"/><line style="stroke:#9933CC;stroke-width:2.0833;" x1="1649.5724" x2="1649.5724" y1="80.7861" y2="1551.3265"/><line style="stroke:#E94560;stroke-width:3.125;" x1="107.3324" x2="107.3324" y1="131.9661" y2="152.7995"/><polygon fill="#E94560" points="103.1657,142.3828,107.3324,152.7995,111.499,142.3828,107.3324,146.5495" style="stroke:#E94560;stroke-width:1.0417;"/><line style="stroke:#E94560;stroke-width:3.125;" x1="107.3324" x2="107.3324" y1="190.4378" y2="211.2712"/><polygon fill="#E94560" points="103.1657,200.8545,107.3324,211.2712,111.499,200.8545,107.3324,205.0212" style="stroke:#E94560;stroke-width:1.0417;"/><line style="stroke:#E94560;stroke-width:3.125;" x1="107.3324" x2="107.3324" y1="263.6312" y2="284.4645"/><polygon fill="#E94560" points="103.1657,274.0479,107.3324,284.4645,111.499,274.0479,107.3324,278.2145" style="stroke:#E94560;stroke-width:1.0417;"/><line style="stroke:#E94560;stroke-width:3.125;" x1="322.7069" x2="255.5552" y1="533.1421" y2="533.1421"/><line style="stroke:#E94560;stroke-width:3.125;" x1="255.5552" x2="255.5552" y1="533.1421" y2="566.5446"/><polygon fill="#E94560" points="251.3885,556.1279,255.5552,566.5446,259.7219,556.1279,255.5552,560.2946" style="stroke:#E94560;stroke-width:1.0417;"/><line style="stroke:#E94560;stroke-width:3.125;" x1="373.4993" x2="373.4993" y1="499.7396" y2="520.5729"/><polygon fill="#E94560" points="369.3326,510.1563,373.4993,520.5729,377.666,510.1563,373.4993,514.3229" style="stroke:#E94560;stroke-width:1.0417;"/><line style="stroke:#E94560;stroke-width:3.125;" x1="471.1264" x2="373.4993" y1="428.6987" y2="428.6987"/><line style="stroke:#E94560;stroke-width:3.125;" x1="373.4993" x2="373.4993" y1="428.6987" y2="462.1012"/><polygon fill="#E94560" points="369.3326,451.6846,373.4993,462.1012,377.666,451.6846,373.4993,455.8512" style="stroke:#E94560;stroke-width:1.0417;"/><line style="stroke:#E94560;stroke-width:3.125;" x1="373.4993" x2="373.4993" y1="1194.1081" y2="1217.0247"/><line style="stroke:#E94560;stroke-width:3.125;" x1="373.4993" x2="513.2854" y1="1217.0247" y2="1217.0247"/><polygon fill="#E94560" points="502.8688,1212.8581,513.2854,1217.0247,502.8688,1221.1914,507.0354,1217.0247" style="stroke:#E94560;stroke-width:1.0417;"/><line style="stroke:#E94560;stroke-width:3.125;" x1="525.7854" x2="525.7854" y1="395.2962" y2="416.1296"/><polygon fill="#E94560" points="521.6188,405.7129,525.7854,416.1296,529.9521,405.7129,525.7854,409.8796" style="stroke:#E94560;stroke-width:1.0417;"/><line style="stroke:#E94560;stroke-width:3.125;" x1="720.1046" x2="684.7444" y1="727.3071" y2="727.3071"/><line style="stroke:#E94560;stroke-width:3.125;" x1="684.7444" x2="684.7444" y1="727.3071" y2="760.7096"/><polygon fill="#E94560" points="680.5777,750.293,684.7444,760.7096,688.9111,750.293,684.7444,754.4596" style="stroke:#E94560;stroke-width:1.0417;"/><line style="stroke:#E94560;stroke-width:3.125;" x1="760.9178" x2="760.9178" y1="678.2796" y2="714.738"/><polygon fill="#E94560" points="756.7511,704.3213,760.9178,714.738,765.0845,704.3213,760.9178,708.488" style="stroke:#E94560;stroke-width:1.0417;"/><line style="stroke:#E94560;stroke-width:3.125;" x1="905.3198" x2="905.3198" y1="887.1663" y2="923.6247"/><polygon fill="#E94560" points="901.1532,913.208,905.3198,923.6247,909.4865,913.208,905.3198,917.3747" style="stroke:#E94560;stroke-width:1.0417;"/><line style="stroke:#E94560;stroke-width:3.125;" x1="905.3198" x2="905.3198" y1="961.263" y2="997.7214"/><polygon fill="#E94560" points="901.1532,987.3047,905.3198,997.7214,909.4865,987.3047,905.3198,991.4714" style="stroke:#E94560;stroke-width:1.0417;"/><line style="stroke:#E94560;stroke-width:3.125;" x1="905.3198" x2="905.3198" y1="1050.0814" y2="1070.9147"/><polygon fill="#E94560" points="901.1532,1060.498,905.3198,1070.9147,909.4865,1060.498,905.3198,1064.6647" style="stroke:#E94560;stroke-width:1.0417;"/><line style="stroke:#E94560;stroke-width:3.125;" x1="1351.9263" x2="1351.9263" y1="499.7396" y2="520.5729"/><polygon fill="#E94560" points="1347.7596,510.1563,1351.9263,520.5729,1356.093,510.1563,1351.9263,514.3229" style="stroke:#E94560;stroke-width:1.0417;"/><line style="stroke:#E94560;stroke-width:3.125;" x1="1351.9263" x2="1351.9263" y1="558.2113" y2="594.6696"/><polygon fill="#E94560" points="1347.7596,584.2529,1351.9263,594.6696,1356.093,584.2529,1351.9263,588.4196" style="stroke:#E94560;stroke-width:1.0417;"/><line style="stroke:#E94560;stroke-width:3.125;" x1="1351.9263" x2="1351.9263" y1="647.0296" y2="683.488"/><polygon fill="#E94560" points="1347.7596,673.0713,1351.9263,683.488,1356.093,673.0713,1351.9263,677.238" style="stroke:#E94560;stroke-width:1.0417;"/><line style="stroke:#E94560;stroke-width:3.125;" x1="1351.9263" x2="1351.9263" y1="735.848" y2="772.3063"/><polygon fill="#E94560" points="1347.7596,761.8896,1351.9263,772.3063,1356.093,761.8896,1351.9263,766.0563" style="stroke:#E94560;stroke-width:1.0417;"/><line style="stroke:#E94560;stroke-width:3.125;" x1="1351.9263" x2="1351.9263" y1="839.388" y2="875.8464"/><polygon fill="#E94560" points="1347.7596,865.4297,1351.9263,875.8464,1356.093,865.4297,1351.9263,869.5964" style="stroke:#E94560;stroke-width:1.0417;"/><line style="stroke:#E94560;stroke-width:3.125;" x1="1351.9263" x2="1351.9263" y1="913.4847" y2="949.943"/><polygon fill="#E94560" points="1347.7596,939.5264,1351.9263,949.943,1356.093,939.5264,1351.9263,943.693" style="stroke:#E94560;stroke-width:1.0417;"/><line style="stroke:#E94560;stroke-width:3.125;" x1="1547.3446" x2="1547.3446" y1="1287.9964" y2="1308.8298"/><polygon fill="#E94560" points="1543.1779,1298.4131,1547.3446,1308.8298,1551.5113,1298.4131,1547.3446,1302.5798" style="stroke:#E94560;stroke-width:1.0417;"/><line style="stroke:#E94560;stroke-width:3.125;" x1="1547.3446" x2="1547.3446" y1="1361.1898" y2="1382.0231"/><polygon fill="#E94560" points="1543.1779,1371.6064,1547.3446,1382.0231,1551.5113,1371.6064,1547.3446,1375.7731" style="stroke:#E94560;stroke-width:1.0417;"/><line style="stroke:#E94560;stroke-width:3.125;" x1="1547.3446" x2="1547.3446" y1="1434.3831" y2="1455.2165"/><polygon fill="#E94560" points="1543.1779,1444.7998,1547.3446,1455.2165,1551.5113,1444.7998,1547.3446,1448.9665" style="stroke:#E94560;stroke-width:1.0417;"/><line style="stroke:#E94560;stroke-width:3.125;" x1="1547.3446" x2="1547.3446" y1="1507.5765" y2="1528.4098"/><polygon fill="#E94560" points="1543.1779,1517.9932,1547.3446,1528.4098,1551.5113,1517.9932,1547.3446,1522.1598" style="stroke:#E94560;stroke-width:1.0417;"/><line style="stroke:#E94560;stroke-width:3.125;" x1="107.3324" x2="107.3324" y1="336.8245" y2="342.0329"/><line style="stroke:#E94560;stroke-width:3.125;" x1="107.3324" x2="525.7854" y1="342.0329" y2="342.0329"/><line style="stroke:#E94560;stroke-width:3.125;" x1="525.7854" x2="525.7854" y1="342.0329" y2="357.6579"/><polygon fill="#E94560" points="521.6188,347.2412,525.7854,357.6579,529.9521,347.2412,525.7854,351.4079" style="stroke:#E94560;stroke-width:1.0417;"/><line style="stroke:#E94560;stroke-width:3.125;" x1="255.5552" x2="255.5552" y1="604.1829" y2="622.4121"/><line style="stroke:#E94560;stroke-width:3.125;" x1="255.5552" x2="760.9178" y1="622.4121" y2="622.4121"/><line style="stroke:#E94560;stroke-width:3.125;" x1="760.9178" x2="760.9178" y1="622.4121" y2="640.6413"/><polygon fill="#E94560" points="756.7511,630.2246,760.9178,640.6413,765.0845,630.2246,760.9178,634.3913" style="stroke:#E94560;stroke-width:1.0417;"/><line style="stroke:#E94560;stroke-width:3.125;" x1="684.7444" x2="684.7444" y1="798.348" y2="816.5771"/><line style="stroke:#E94560;stroke-width:3.125;" x1="684.7444" x2="905.3198" y1="816.5771" y2="816.5771"/><line style="stroke:#E94560;stroke-width:3.125;" x1="905.3198" x2="905.3198" y1="816.5771" y2="834.8063"/><polygon fill="#E94560" points="901.1532,824.3896,905.3198,834.8063,909.4865,824.3896,905.3198,828.5563" style="stroke:#E94560;stroke-width:1.0417;"/><line style="stroke:#E94560;stroke-width:3.125;" x1="801.731" x2="1047.25" y1="727.3071" y2="727.3071"/><line style="stroke:#E94560;stroke-width:3.125;" x1="1047.25" x2="1047.25" y1="727.3071" y2="760.7096"/><polygon fill="#E94560" points="1043.0833,750.293,1047.25,760.7096,1051.4167,750.293,1047.25,754.4596" style="stroke:#E94560;stroke-width:1.0417;"/><line style="stroke:#E94560;stroke-width:3.125;" x1="905.3198" x2="905.3198" y1="1123.2747" y2="1128.4831"/><line style="stroke:#E94560;stroke-width:3.125;" x1="905.3198" x2="729.6678" y1="1128.4831" y2="1128.4831"/><line style="stroke:#E94560;stroke-width:3.125;" x1="729.6678" x2="729.6678" y1="1128.4831" y2="1146.1914"/><line style="stroke:#E94560;stroke-width:3.125;" x1="729.6678" x2="748.4178" y1="1146.1914" y2="1146.1914"/><polygon fill="#E94560" points="738.0011,1142.0247,748.4178,1146.1914,738.0011,1150.3581,742.1678,1146.1914" style="stroke:#E94560;stroke-width:1.0417;"/><line style="stroke:#E94560;stroke-width:3.125;" x1="1047.25" x2="1047.25" y1="798.348" y2="1146.1914"/><line style="stroke:#E94560;stroke-width:3.125;" x1="1047.25" x2="773.4178" y1="1146.1914" y2="1146.1914"/><polygon fill="#E94560" points="783.8345,1142.0247,773.4178,1146.1914,783.8345,1150.3581,779.6678,1146.1914" style="stroke:#E94560;stroke-width:1.0417;"/><line style="stroke:#E94560;stroke-width:3.125;" x1="424.2917" x2="1186.1314" y1="533.1421" y2="533.1421"/><line style="stroke:#E94560;stroke-width:3.125;" x1="1186.1314" x2="1186.1314" y1="533.1421" y2="566.5446"/><polygon fill="#E94560" points="1181.9647,556.1279,1186.1314,566.5446,1190.2981,556.1279,1186.1314,560.2946" style="stroke:#E94560;stroke-width:1.0417;"/><line style="stroke:#E94560;stroke-width:3.125;" x1="760.9178" x2="760.9178" y1="1158.6914" y2="1163.8997"/><line style="stroke:#E94560;stroke-width:3.125;" x1="760.9178" x2="342.2493" y1="1163.8997" y2="1163.8997"/><line style="stroke:#E94560;stroke-width:3.125;" x1="342.2493" x2="342.2493" y1="1163.8997" y2="1181.6081"/><line style="stroke:#E94560;stroke-width:3.125;" x1="342.2493" x2="360.9993" y1="1181.6081" y2="1181.6081"/><polygon fill="#E94560" points="350.5826,1177.4414,360.9993,1181.6081,350.5826,1185.7747,354.7493,1181.6081" style="stroke:#E94560;stroke-width:1.0417;"/><line style="stroke:#E94560;stroke-width:3.125;" x1="1186.1314" x2="1186.1314" y1="604.1829" y2="1181.6081"/><line style="stroke:#E94560;stroke-width:3.125;" x1="1186.1314" x2="385.9993" y1="1181.6081" y2="1181.6081"/><polygon fill="#E94560" points="396.416,1177.4414,385.9993,1181.6081,396.416,1185.7747,392.2493,1181.6081" style="stroke:#E94560;stroke-width:1.0417;"/><line style="stroke:#E94560;stroke-width:3.125;" x1="580.4445" x2="1351.9263" y1="428.6987" y2="428.6987"/><line style="stroke:#E94560;stroke-width:3.125;" x1="1351.9263" x2="1351.9263" y1="428.6987" y2="462.1012"/><polygon fill="#E94560" points="1347.7596,451.6846,1351.9263,462.1012,1356.093,451.6846,1351.9263,455.8512" style="stroke:#E94560;stroke-width:1.0417;"/><line style="stroke:#E94560;stroke-width:3.125;" x1="1351.9263" x2="1351.9263" y1="1002.3031" y2="1217.0247"/><line style="stroke:#E94560;stroke-width:3.125;" x1="1351.9263" x2="538.2854" y1="1217.0247" y2="1217.0247"/><polygon fill="#E94560" points="548.7021,1212.8581,538.2854,1217.0247,548.7021,1221.1914,544.5354,1217.0247" style="stroke:#E94560;stroke-width:1.0417;"/><line style="stroke:#E94560;stroke-width:3.125;" x1="525.7854" x2="525.7854" y1="1229.5247" y2="1234.7331"/><line style="stroke:#E94560;stroke-width:3.125;" x1="525.7854" x2="1547.3446" y1="1234.7331" y2="1234.7331"/><line style="stroke:#E94560;stroke-width:3.125;" x1="1547.3446" x2="1547.3446" y1="1234.7331" y2="1250.3581"/><polygon fill="#E94560" points="1543.1779,1239.9414,1547.3446,1250.3581,1551.5113,1239.9414,1547.3446,1244.1081" style="stroke:#E94560;stroke-width:1.0417;"/><text fill="#2A9FD6" font-family="Inter" font-size="12.5" lengthAdjust="spacing" textLength="56.897" x="77.8422" y="98.0794">New User</text><text fill="#2A9FD6" font-family="Inter" font-size="12.5" lengthAdjust="spacing" textLength="42.9504" x="382.7576" y="98.0794">Browse</text><text fill="#2A9FD6" font-family="Inter" font-size="12.5" lengthAdjust="spacing" textLength="39.1785" x="699.9571" y="98.0794">Owner</text><text fill="#2A9FD6" font-family="Inter" font-size="12.5" lengthAdjust="spacing" textLength="58.02" x="1014.1496" y="98.0794">Exchange</text><text fill="#2A9FD6" font-family="Inter" font-size="12.5" lengthAdjust="spacing" textLength="52.1912" x="1324.789" y="98.0794">List Item</text><text fill="#2A9FD6" font-family="Inter" font-size="12.5" lengthAdjust="spacing" textLength="41.1194" x="1525.7432" y="98.0794">Impact</text><!--SRC=[TLJDRjf04BxxAQRA1TH4WP14BHmg_YAbIWY2ffKgBeizu1NshhCxXYBvb4ilLTKtoAd7LkehvGdo29t59Y64M9OixtpVpEuty-qR2Z56y9TZRQO7EgL8AlJiJAf46173MFYpgT6f2jewqWR826KvX8esK05EH1hHcLRK4vpkN16QZNZJ9pcNj6njPTkhdXvLQxWBgKs0fa3X- -EJqyecoXYzU3LOfEX84MiLlAXvKgiTlwjv7acA4AwL72v40WTmRT70HvqQXKiuY_J2yxAzggYA8yoWXuiSa7cMX26l_bbQIMjwmwiFS2ej7niMaiAHui0S3KEMq8s5Z1ZHDYW8eM_qH4OuKYMdrJwqkQHTVHK9dyeDLxSogHsVLZ9eyK4jSjNw48NnmyDYuO9hIJMr3KzEe7JcZWVdXF67Cd175PIMQCiUyCCRvRsx67IGU2VCSUkEzqKeUeMseWwHqmxm9aLBZSVbh90mWwk5MadoI1ZWt5LxGN75chwF2Uskj2Ap01DfOkX-yqEXfjXu5iwAOSaUunk5L_nBH0918zMN_YnDuAjMMpcuH9n4o4tONQC-4AjOWaQYyhb7ztz-RRvRyAum2lfQAh8ZzRPQWOUxdt-VC1XnfqfARvspWxvpsKkLM6qvyNOpdJhSyHJpaU3UvxoSynp_D3vkJFBUvrgjPz2DSp52UPfwCmYW7shInN_NMNWzCJohdvnRzdd1-aOc9BKg5yWXgzxcf5DjbWniQJqxx6b2UzYzIMKIyrLHVfRqVDZgCR2PaZwO8FaXJ8oEH-eguRcua6CZp7BDwAVZIDfmQxElw9vhmUx9xuGCpkE47UNSip91HzXmh8K96ivEx4Gsg5OYWY49bwdabB8m3Fb-2_RXKhkRO2Zc69GB1izFd2fdwZmrSzfNzxUttCiWzGjLwjSgqluCMYAO8gTzkFlz_U7knpysjYMTUFy1]--></g></svg>